<?xml version="1.0" encoding="utf-8" standalone="no"?>
<svg xmlns:dc="http://purl.org/dc/elements/1.1/" xmlns:cc="http://creativecommons.org/ns#" xmlns:svg="http://www.w3.org/2000/svg" xmlns="http://www.w3.org/2000/svg" xmlns:xlink="http://www.w3.org/1999/xlink" width="256" height="256" version="1.0">
  <defs id="defs4">
    <linearGradient id="linearGradient">
      <stop style="stop-color: rgb(255, 255, 255); stop-opacity: 1;" offset="0" id="stop2557" />
      <stop style="stop-color: rgb(255, 255, 255); stop-opacity: 0;" offset="1" id="stop2559" />
    </linearGradient>
    <linearGradient xlink:href="#linearGradient" id="linearGradient2" gradientUnits="userSpaceOnUse" gradientTransform="matrix(-0.5914583,0,0,0.5914584,210.0216,142.2324)" x1="-344" y1="274" x2="-395" y2="425" />
  </defs>
  <g transform="translate(-373,-318)" style="fill-rule:evenodd;stroke:none;stroke-linejoin:miter;fill:#ffffff;">
    <rect 
      transform="scale(-1,1)" 
      ry="35" 
      rx="35" 
      y="328" 
      x="-619" 
      height="234" 
      width="235" 
      style="fill:#e15a00;stroke-width:0.875;stroke-linecap:square;" 
      />
    <path 
      d="M 557,338 L 446,338 C 416,338 396,338 395,368 L 396,500 C 394,523 397,508 404,483 C 412,453 439,427 471,408 C 495,393 523,383 572,382 C 601,382 598,346 557,338 z" 
      style="fill:url(#linearGradient2);opacity:0.6;stroke-width:0;stroke-linecap:square;" 
      />
    <path 
      d="m 385,200 c 0,13 -11,23 -24,23 -13,0 -24,-10 -24,-23 0,-13 11,-23 24,-23 13,0 24,10 24,23 z" 
      transform="matrix(0.8699574,0,0,0.8699574,135.15631,330.52863)"
      style="stroke:none;stroke-width:12;stroke-linecap:round;" 
      />
    <path 
      d="M 427,455 L 427,424 C 492,428 528,474 529,526 L 498,526 C 498,480 467,456 427,455 z" 
      style="stroke-width:1;stroke-linecap:butt;" 
      />
    <path 
      d="M 428,404 L 427,373 C 526,378 580,450 580,526 L 549,526 C 550,477 514,406 428,404 z" 
      style="stroke-width:1;stroke-linecap:butt;" 
      />
  </g>
</svg>
