<svg width="78" height="58" viewBox="0 0 78 58" fill="none" xmlns="http://www.w3.org/2000/svg">
<path d="M25.5104 0.00100104C24.804 0.00100104 24.05 0.070333 23.3177 0.248C22.5724 0.425666 20.7957 0.963001 19.6864 2.68333L19.6257 2.77L16.9954 7.32C15.665 8.20834 14.6814 9.31334 13.9924 10.427L13.9317 10.5137L2.78636 30.6637C2.34063 31.3484 1.94386 32.0637 1.59903 32.8043L1.57303 32.8477C0.532267 35.1211 -0.00433964 37.5927 2.64306e-05 40.093C2.64306e-05 44.6901 1.82621 49.0989 5.07684 52.3495C8.32747 55.6001 12.7363 57.4263 17.3334 57.4263C21.9304 57.4263 26.3392 55.6001 29.5899 52.3495C32.8405 49.0989 34.6667 44.6901 34.6667 40.093V35.7597H43.3334V40.093C43.3338 42.6835 43.9148 45.241 45.0338 47.5774C46.1528 49.9137 47.7812 51.9696 49.7993 53.5938C51.8175 55.2179 54.174 56.3691 56.6956 56.9626C59.2172 57.556 61.8398 57.5768 64.3704 57.0233C66.9011 56.4697 69.2755 55.356 71.3191 53.764C73.3627 52.1719 75.0234 50.1421 76.1792 47.8237C77.335 45.5053 77.9564 42.9573 77.9978 40.3672C78.0392 37.777 77.4995 35.2105 76.4184 32.8563L76.401 32.8043C76.0562 32.0637 75.6594 31.3484 75.2137 30.6637L64.0684 10.5137L64.0077 10.427C63.2454 9.18576 62.2204 8.12669 61.0047 7.32433L58.3744 2.77L58.3137 2.68333C57.2044 0.963001 55.4234 0.43 54.6824 0.248C53.74 0.0287539 52.7698 -0.0457648 51.805 0.0270012C50.7908 0.0779557 49.7934 0.306768 48.8584 0.703C48.061 1.054 46.0937 2.12 45.591 4.55533L45.5607 4.71567L44.954 9.48233C44.0007 10.7087 43.3334 12.2557 43.3334 14.093V18.4263H34.6667V14.093C34.6667 12.2557 33.9994 10.7087 33.0504 9.48233L32.4437 4.71567L32.409 4.55533C31.9064 2.12 29.939 1.054 29.1417 0.703C28.2067 0.306768 27.2093 0.0779557 26.195 0.0270012C25.9672 0.00931314 25.7388 0.00063952 25.5104 0.00100104ZM17.3334 31.4263C19.1976 31.4273 21.0119 32.0294 22.5068 33.1433C24.0017 34.2571 25.0977 35.8233 25.6319 37.6094C26.1662 39.3955 26.1102 41.3062 25.4724 43.058C24.8347 44.8097 23.649 46.3092 22.0915 47.3337C20.534 48.3582 18.6876 48.8531 16.8265 48.7451C14.9654 48.6371 13.1887 47.9318 11.7602 46.7339C10.3317 45.5361 9.32746 43.9096 8.89665 42.0958C8.46584 40.282 8.63138 38.3776 9.36869 36.6653L10.192 35.1833C11.752 32.917 14.3694 31.4263 17.3334 31.4263ZM60.6667 31.4263C63.6307 31.4263 66.248 32.917 67.808 35.1833L68.6314 36.6653C69.3687 38.3776 69.5342 40.282 69.1034 42.0958C68.6726 43.9096 67.6684 45.5361 66.2399 46.7339C64.8114 47.9318 63.0347 48.6371 61.1736 48.7451C59.3124 48.8531 57.4661 48.3582 55.9086 47.3337C54.351 46.3092 53.1654 44.8097 52.5276 43.058C51.8898 41.3062 51.8339 39.3955 52.3681 37.6094C52.9024 35.8233 53.9983 34.2571 55.4932 33.1433C56.9882 32.0294 58.8024 31.4273 60.6667 31.4263Z" fill="#022759"/>
</svg>
