<svg width="75" height="75" viewBox="0 0 75 75" fill="none" xmlns="http://www.w3.org/2000/svg">
<path d="M10.5077 53.9846C13.2945 53.9846 15.9672 55.0916 17.9378 57.0622C19.9084 59.0328 21.0154 61.7055 21.0154 64.4923C21.0154 70.1799 16.2918 75 10.5077 75C4.82005 75 0 70.1799 0 64.4923C0 61.7055 1.10706 59.0328 3.07764 57.0622C5.04822 55.0916 7.72089 53.9846 10.5077 53.9846ZM0 0C19.8912 0 38.9678 7.90176 53.033 21.967C67.0982 36.0322 75 55.1088 75 75H61.3593C61.3593 58.7265 54.8946 43.1195 43.3875 31.6125C31.8805 20.1054 16.2735 13.6407 0 13.6407V0ZM0 27.2815C12.6557 27.2815 24.7931 32.309 33.7421 41.2579C42.691 50.2069 47.7185 62.3443 47.7185 75H34.0778C34.0778 65.962 30.4874 57.2942 24.0966 50.9034C17.7058 44.5126 9.03799 40.9222 0 40.9222V27.2815Z" fill="#022759"/>
</svg>
