<svg xmlns="http://www.w3.org/2000/svg" xml:space="preserve" viewBox="0 0 100 100"><path d="M80.5 32.4c0-.2-.1-.3-.2-.5 0 0 0-.1-.1-.1-.1-.1-.2-.3-.3-.4l-22.1-22c-.1-.1-.2-.2-.4-.3 0 0-.1 0-.1-.1-.1.1-.2 0-.4 0H24.8c-2.9 0-5.3 2.4-5.3 5.3v71.9c0 2.9 2.4 5.3 5.3 5.3h50.4c2.9 0 5.3-2.4 5.3-5.3V32.4zm-6.3-1.5H58.4V15.2l15.8 15.7zm2.6 55.3c0 .9-.7 1.6-1.6 1.6H24.8c-.9 0-1.6-.7-1.6-1.6V14.3c0-.9.7-1.6 1.6-1.6h29.9v20.1c0 1 .8 1.8 1.8 1.8h20.2v51.6zm-8.5-19.3c0 1-.8 1.8-1.8 1.8H33.2c-1 0-1.8-.8-1.8-1.8s.8-1.8 1.8-1.8h33.3c1-.1 1.8.8 1.8 1.8zm0 11.1c0 1-.8 1.8-1.8 1.8H33.2c-1 0-1.8-.8-1.8-1.8s.8-1.8 1.8-1.8h33.3c1-.1 1.8.7 1.8 1.8zm0-22.1c0 1-.8 1.8-1.8 1.8H33.2c-1 0-1.8-.8-1.8-1.8s.8-1.8 1.8-1.8h33.3c1 0 1.8.8 1.8 1.8zM33.2 43.1h33.3c1 0 1.8.8 1.8 1.8s-.8 1.8-1.8 1.8H33.2c-1 0-1.8-.8-1.8-1.8-.1-.9.7-1.8 1.8-1.8zm-1.9-20c0-1 .8-1.8 1.8-1.8h11.5c1 0 1.8.8 1.8 1.8s-.8 1.8-1.8 1.8h-3.9v7.8c0 1-.8 1.8-1.8 1.8s-1.8-.8-1.8-1.8V25h-3.9c-1.1 0-1.9-.9-1.9-1.9z"/></svg>